<svg width="28" height="28" viewBox="0 0 28 28" fill="none" xmlns="http://www.w3.org/2000/svg">
<g id="mdi:instagram">
<path id="Vector" d="M9.10001 2.33325H18.9C22.6333 2.33325 25.6667 5.36659 25.6667 9.09992V18.8999C25.6667 20.6946 24.9538 22.4157 23.6848 23.6847C22.4158 24.9537 20.6946 25.6666 18.9 25.6666H9.10001C5.36668 25.6666 2.33334 22.6333 2.33334 18.8999V9.09992C2.33334 7.30529 3.04626 5.58416 4.31525 4.31516C5.58425 3.04617 7.30538 2.33325 9.10001 2.33325ZM8.86668 4.66659C7.75277 4.66659 6.68448 5.10908 5.89683 5.89674C5.10918 6.68439 4.66668 7.75268 4.66668 8.86658V19.1333C4.66668 21.4549 6.54501 23.3333 8.86668 23.3333H19.1333C20.2473 23.3333 21.3155 22.8908 22.1032 22.1031C22.8908 21.3154 23.3333 20.2472 23.3333 19.1333V8.86658C23.3333 6.54492 21.455 4.66659 19.1333 4.66659H8.86668ZM20.125 6.41658C20.5118 6.41658 20.8827 6.57023 21.1562 6.84372C21.4297 7.11721 21.5833 7.48814 21.5833 7.87492C21.5833 8.26169 21.4297 8.63263 21.1562 8.90612C20.8827 9.17961 20.5118 9.33325 20.125 9.33325C19.7382 9.33325 19.3673 9.17961 19.0938 8.90612C18.8203 8.63263 18.6667 8.26169 18.6667 7.87492C18.6667 7.48814 18.8203 7.11721 19.0938 6.84372C19.3673 6.57023 19.7382 6.41658 20.125 6.41658ZM14 8.16658C15.5471 8.16658 17.0308 8.78117 18.1248 9.87513C19.2188 10.9691 19.8333 12.4528 19.8333 13.9999C19.8333 15.547 19.2188 17.0307 18.1248 18.1247C17.0308 19.2187 15.5471 19.8333 14 19.8333C12.4529 19.8333 10.9692 19.2187 9.87522 18.1247C8.78126 17.0307 8.16668 15.547 8.16668 13.9999C8.16668 12.4528 8.78126 10.9691 9.87522 9.87513C10.9692 8.78117 12.4529 8.16658 14 8.16658ZM14 10.4999C13.0718 10.4999 12.1815 10.8687 11.5251 11.525C10.8688 12.1814 10.5 13.0717 10.5 13.9999C10.5 14.9282 10.8688 15.8184 11.5251 16.4748C12.1815 17.1312 13.0718 17.4999 14 17.4999C14.9283 17.4999 15.8185 17.1312 16.4749 16.4748C17.1313 15.8184 17.5 14.9282 17.5 13.9999C17.5 13.0717 17.1313 12.1814 16.4749 11.525C15.8185 10.8687 14.9283 10.4999 14 10.4999Z" fill="white"/>
</g>
</svg>
