<svg width="28" height="29" viewBox="0 0 28 29" fill="none" xmlns="http://www.w3.org/2000/svg">
<g id="mdi:linkedin">
<path id="Vector" d="M22.1667 3.625C22.7855 3.625 23.379 3.87961 23.8166 4.33283C24.2542 4.78604 24.5 5.40073 24.5 6.04167V22.9583C24.5 23.5993 24.2542 24.214 23.8166 24.6672C23.379 25.1204 22.7855 25.375 22.1667 25.375H5.83333C5.21449 25.375 4.621 25.1204 4.18342 24.6672C3.74583 24.214 3.5 23.5993 3.5 22.9583V6.04167C3.5 5.40073 3.74583 4.78604 4.18342 4.33283C4.621 3.87961 5.21449 3.625 5.83333 3.625H22.1667ZM21.5833 22.3542V15.95C21.5833 14.9053 21.1826 13.9033 20.4694 13.1646C19.7561 12.4259 18.7887 12.0108 17.78 12.0108C16.7883 12.0108 15.6333 12.6392 15.0733 13.5817V12.2404H11.8183V22.3542H15.0733V16.3971C15.0733 15.4667 15.7967 14.7054 16.695 14.7054C17.1282 14.7054 17.5436 14.8836 17.8499 15.2009C18.1562 15.5181 18.3283 15.9484 18.3283 16.3971V22.3542H21.5833ZM8.02667 10.3433C8.54649 10.3433 9.04502 10.1295 9.4126 9.74876C9.78017 9.36806 9.98667 8.85172 9.98667 8.31333C9.98667 7.18958 9.11167 6.27125 8.02667 6.27125C7.50375 6.27125 7.00225 6.4864 6.63249 6.86936C6.26273 7.25233 6.055 7.77174 6.055 8.31333C6.055 9.43708 6.94167 10.3433 8.02667 10.3433ZM9.64833 22.3542V12.2404H6.41667V22.3542H9.64833Z" fill="white"/>
</g>
</svg>
