<svg width="457" height="15" viewBox="0 0 457 15" fill="none" xmlns="http://www.w3.org/2000/svg">
<path d="M1 7.5C16.1667 -1.16667 31.3333 -1.16667 46.5 7.5C61.6667 16.1667 76.8333 16.1667 92 7.5C107.167 -1.16667 122.333 -1.16667 137.5 7.5C152.667 16.1667 167.833 16.1667 183 7.5C198.167 -1.16667 213.333 -1.16667 228.5 7.5C243.667 16.1667 258.833 16.1667 274 7.5C289.167 -1.16667 304.333 -1.16667 319.5 7.5C334.667 16.1667 349.833 16.1667 365 7.5C380.167 -1.16667 395.333 -1.16667 410.5 7.5C425.667 16.1667 440.833 16.1667 456 7.5" stroke="#101010" stroke-width="2"/>
</svg>
